<?xml version="1.0" encoding="UTF-8"?>
<svg width="16px" height="16px" viewBox="0 0 16 16" version="1.1" xmlns="http://www.w3.org/2000/svg" xmlns:xlink="http://www.w3.org/1999/xlink">
    <!-- Generator: Sketch 41 (35326) - http://www.bohemiancoding.com/sketch -->
    <title>Group 34</title>
    <desc>Created with Sketch.</desc>
    <defs></defs>
    <g id="V1" stroke="none" stroke-width="1" fill="none" fill-rule="evenodd">
        <g id="Group-34" transform="translate(1.000000, 0.000000)" stroke="#000000" stroke-width="0.25" fill="#000000">
            <path d="M7.33956981,0.335457875 C3.31940061,0.335457875 0.049034875,3.60582361 0.049034875,7.62599281 C0.049034875,11.646162 3.31940061,14.9165278 7.33956981,14.9165278 C11.359739,14.9165278 14.6301048,11.646162 14.6301048,7.62599281 C14.6301048,3.60582361 11.359739,0.335457875 7.33956981,0.335457875 Z M7.33956981,14.3557174 C3.62896794,14.3557174 0.60984525,11.3365947 0.60984525,7.62599281 C0.60984525,3.91539094 3.62896794,0.89626825 7.33956981,0.89626825 C11.0501717,0.89626825 14.0692944,3.91539094 14.0692944,7.62599281 C14.0692944,11.3365947 11.0501717,14.3557174 7.33956981,14.3557174 Z" id="Shape"></path>
            <path d="M7.33956981,10.5742886 C7.19135095,10.5742886 7.07154293,10.6940966 7.07154293,10.8423155 L7.07154293,11.3783692 C7.07154293,11.5265881 7.19135095,11.6463961 7.33956981,11.6463961 C7.48778868,11.6463961 7.6075967,11.5265881 7.6075967,11.3783692 L7.6075967,10.8423155 C7.6075967,10.6940966 7.48778868,10.5742886 7.33956981,10.5742886 Z" id="Shape"></path>
            <path d="M7.36985685,3.06980377 C7.35967183,3.06980377 7.34948681,3.06953574 7.33903376,3.06953574 C6.77188887,3.06953574 6.23851536,3.28797765 5.83406279,3.68706969 C5.42237349,4.09313042 5.19535472,4.63534881 5.19535472,5.21375083 C5.19535472,5.3619697 5.31516274,5.48177772 5.46338161,5.48177772 C5.61160048,5.48177772 5.73140849,5.3619697 5.73140849,5.21375083 C5.73140849,4.78008333 5.90160557,4.37321852 6.21037254,4.06873998 C6.51940754,3.76399341 6.93082881,3.59567252 7.36262013,3.60585754 C8.20985312,3.61765072 8.93566992,4.34346753 8.94746311,5.19070052 C8.95523589,5.74926855 8.67970425,6.26334412 8.21012114,6.5662145 C7.49716962,7.02614864 7.07154293,7.83880616 7.07154293,8.74044861 L7.07154293,9.50218102 C7.07154293,9.6503999 7.19135095,9.7702079 7.33956981,9.7702079 C7.48778868,9.7702079 7.6075967,9.6503999 7.6075967,9.50218102 L7.6075967,8.74044861 C7.6075967,8.03232157 7.94959901,7.37217135 8.50066229,7.01649967 C9.12650507,6.61285118 9.4939699,5.92750643 9.4835169,5.18319577 C9.4674353,4.03416451 8.51915614,3.08588538 7.36985685,3.06980377 Z" id="Shape"></path>
        </g>
    </g>
</svg>