<?xml version="1.0" encoding="UTF-8"?>
<svg width="17px" height="15px" viewBox="0 0 17 15" version="1.1" xmlns="http://www.w3.org/2000/svg" xmlns:xlink="http://www.w3.org/1999/xlink">
    <!-- Generator: Sketch 41 (35326) - http://www.bohemiancoding.com/sketch -->
    <title>Group 42 Copy</title>
    <desc>Created with Sketch.</desc>
    <defs></defs>
    <g id="V1" stroke="none" stroke-width="1" fill="none" fill-rule="evenodd">
        <g id="Group-42-Copy" transform="translate(0.000000, 0.722223)" fill="#00AACC">
            <path d="M0.75923805,2.35412439 L0.75923805,11.4205415 C0.75923805,12.6698222 1.77838808,13.6889722 3.02766876,13.6889722 L10.355321,13.6889722 C11.6046016,13.6889722 12.6237517,12.6698222 12.6237517,11.4205415 L12.6237517,9.9520888 C12.6237517,9.7036938 12.422844,9.5027861 12.174449,9.5027861 C11.926054,9.5027861 11.7251463,9.7036938 11.7251463,9.9520888 L11.7251463,11.4205415 C11.7251463,12.1766851 11.1078117,12.7940197 10.3516681,12.7940197 L3.02766876,12.7940197 C2.27152519,12.7940197 1.65419059,12.1766851 1.65419059,11.4205415 L1.65419059,2.35412439 C1.65419059,1.59798082 2.27152519,0.98064621 3.02766876,0.98064621 L10.355321,0.98064621 C11.1114645,0.98064621 11.7287991,1.59798082 11.7287991,2.35412439 L11.7287991,3.82257712 C11.7287991,4.07097211 11.9297068,4.27187982 12.1781018,4.27187982 C12.4264968,4.27187982 12.6274045,4.07097211 12.6274045,3.82257712 L12.6274045,2.35412439 C12.6274045,1.1048437 11.6082545,0.085693674 10.3589738,0.085693674 L3.02766876,0.085693674 C1.77838808,0.085693674 0.75923805,1.10119084 0.75923805,2.35412439 Z" id="Shape"></path>
            <path d="M13.519829,9.11210231 C13.57756,9.16983328 13.6521292,9.19869876 13.7291038,9.19869876 C13.8060784,9.19869876 13.8806476,9.16983328 13.9383785,9.11210231 L15.9565569,7.09392396 C16.0720188,6.97846203 16.0720188,6.79324185 15.9565569,6.67777992 L13.9383785,4.65960157 C13.8229166,4.54413964 13.6376964,4.54413964 13.5222345,4.65960157 C13.4067726,4.7750635 13.4067726,4.96028368 13.5222345,5.07574562 L15.0376724,6.59118347 L9.50752692,6.59118347 C9.34395585,6.59118347 9.21165572,6.7234836 9.21165572,6.88705467 C9.21165572,7.05062574 9.34395585,7.18292587 9.50752692,7.18292587 L15.0352669,7.18292587 L13.519829,8.69836372 C13.4043671,8.8114202 13.4043671,8.99904584 13.519829,9.11210231 Z" id="Shape" stroke="#00AACC" stroke-width="0.25"></path>
        </g>
    </g>
</svg>