<?xml version="1.0" encoding="UTF-8"?>
<svg width="21px" height="22px" viewBox="0 0 21 22" version="1.1" xmlns="http://www.w3.org/2000/svg" xmlns:xlink="http://www.w3.org/1999/xlink">
    <!-- Generator: sketchtool 41 (35326) - http://www.bohemiancoding.com/sketch -->
    <title>E2DE3B61-6502-422A-8D80-8034B47C3400</title>
    <desc>Created with sketchtool.</desc>
    <defs></defs>
    <g id="v2" stroke="none" stroke-width="1" fill="none" fill-rule="evenodd">
        <g id="Dashboard-V2" transform="translate(-1166.000000, -49.000000)" fill="#00B4D2">
            <g id="Group-55">
                <g id="Group-37">
                    <path d="M1185.55611,69.5958418 L1168.00413,69.5958418 L1168.00413,67.6050965 C1168.00413,66.5130124 1169.0046,65.5546744 1170.14512,65.5546744 L1173.51405,65.5546744 L1174.90311,62.7186258 C1175.50444,62.9250371 1176.14509,63.0415822 1176.81101,63.0415822 C1177.38216,63.0415822 1177.93539,62.9573327 1178.4609,62.8039285 L1179.80889,65.5546744 L1183.54009,65.5546744 C1184.65183,65.5546744 1185.55611,66.447719 1185.55611,67.5450687 L1185.55611,69.5958418 Z M1172.29068,57.4449586 L1172.2489,56.8755724 L1171.68303,56.80045 C1171.25125,56.7428795 1170.81245,56.3756921 1170.81245,56.2033317 L1170.81245,55.8386016 C1170.81245,55.6686984 1171.24739,55.3029152 1171.67531,55.2421854 L1172.27874,55.1561807 L1172.27874,53.1552552 C1172.27874,51.6384133 1173.51124,50.4041582 1175.02633,50.4041582 L1181.34364,50.4041582 L1181.34364,55.1365225 L1181.91162,55.2467489 C1182.32655,55.327488 1182.7478,55.6844952 1182.7478,55.8386016 L1182.7478,56.2033317 C1182.7478,56.3651609 1182.33252,56.7190088 1181.90741,56.7958865 L1181.37102,56.8924223 L1181.33205,57.4365336 C1181.16355,59.7920091 1179.17772,61.637424 1176.81101,61.637424 C1174.44957,61.637424 1172.46409,59.7958705 1172.29068,57.4449586 L1172.29068,57.4449586 Z M1183.54009,64.1505162 L1180.68438,64.1505162 L1179.75413,62.2517432 C1181.28256,61.3730912 1182.39605,59.8365911 1182.67794,58.0203124 C1183.39336,57.723684 1184.15195,57.0826858 1184.15195,56.2033317 L1184.15195,55.8386016 C1184.15195,54.9957556 1183.43899,54.3649375 1182.7478,54.0542675 L1182.7478,49 L1175.02633,49 C1172.73685,49 1170.87458,50.86402 1170.87458,53.1552552 L1170.87458,54.0219719 C1170.14056,54.324919 1169.40829,54.9764484 1169.40829,55.8386016 L1169.40829,56.2033317 C1169.40829,57.0981315 1170.1883,57.7615963 1170.94936,58.0494487 C1171.22387,59.7593624 1172.23837,61.2175807 1173.63832,62.1095722 L1172.63856,64.1505162 L1170.14512,64.1505162 C1168.22353,64.1505162 1166.59998,65.7326515 1166.59998,67.6050965 L1166.59998,71 L1186.96027,71 L1186.96027,67.5450687 C1186.96027,65.6733258 1185.42588,64.1505162 1183.54009,64.1505162 L1183.54009,64.1505162 Z" id="Page-1"></path>
                </g>
            </g>
        </g>
    </g>
</svg>