<?xml version="1.0" encoding="UTF-8"?>
<svg width="15px" height="15px" viewBox="0 0 15 15" version="1.1" xmlns="http://www.w3.org/2000/svg" xmlns:xlink="http://www.w3.org/1999/xlink">
    <!-- Generator: Sketch 41 (35326) - http://www.bohemiancoding.com/sketch -->
    <title>Group 33 Copy</title>
    <desc>Created with Sketch.</desc>
    <defs></defs>
    <g id="V1" stroke="none" stroke-width="1" fill="none" fill-rule="evenodd">
        <g id="Group-33-Copy" transform="translate(0.000000, 0.222223)" fill="#00AACC">
            <path d="M13.2417041,13.489265 L1.7582959,13.489265 L1.7582959,12.1868168 C1.7582959,11.4723192 2.41285017,10.8453251 3.15904203,10.8453251 L5.3631674,10.8453251 L6.27196433,8.989836 C6.66538589,9.12488088 7.08453029,9.20113071 7.5202108,9.20113071 C7.8938809,9.20113071 8.25583793,9.14601035 8.59965117,9.04564536 L9.48157692,10.8453251 L11.9227198,10.8453251 C12.6500789,10.8453251 13.2417041,11.4296009 13.2417041,12.1475436 L13.2417041,13.489265 Z M4.56277385,5.53953117 L4.53544334,5.16700941 L4.16521826,5.11786042 C3.88272642,5.08019484 3.59564121,4.83996194 3.59564121,4.72719487 L3.59564121,4.48856965 C3.59564121,4.37741026 3.88020007,4.13809603 4.16016556,4.09836344 L4.55496513,4.04209474 L4.55496513,2.73298621 C4.55496513,1.74059007 5.36133006,0.933076804 6.35257785,0.933076804 L10.4856861,0.933076804 L10.4856861,4.02923332 L10.8572892,4.10134913 C11.128757,4.1541728 11.4043588,4.38774533 11.4043588,4.48856965 L11.4043588,4.72719487 C11.4043588,4.8330719 11.1326614,5.06457741 10.8545332,5.11487473 L10.5036002,5.17803348 L10.4781071,5.53401913 C10.3678664,7.07509251 9.06863356,8.28245805 7.5202108,8.28245805 C5.97523306,8.28245805 4.67622992,7.07761886 4.56277385,5.53953117 L4.56277385,5.53953117 Z M11.9227198,9.92665244 L10.0543693,9.92665244 L9.44574869,8.68437734 C10.4457239,8.10951793 11.1742313,7.10426037 11.3586548,5.91595729 C11.8267185,5.72188769 12.3230314,5.30251362 12.3230314,4.72719487 L12.3230314,4.48856965 C12.3230314,3.93713639 11.8565754,3.5244227 11.4043588,3.32116637 L11.4043588,0.0144041484 L6.35257785,0.0144041484 C4.85468209,0.0144041484 3.63629248,1.2339421 3.63629248,2.73298621 L3.63629248,3.3000369 C3.15605635,3.49824053 2.67696856,3.92450464 2.67696856,4.48856965 L2.67696856,4.72719487 C2.67696856,5.31261902 3.18729122,5.74669185 3.6852118,5.93501975 C3.8648123,7.05373338 4.52855329,8.00777493 5.44446993,8.59136173 L4.790375,9.92665244 L3.15904203,9.92665244 C1.9018385,9.92665244 0.839623244,10.9617669 0.839623244,12.1868168 L0.839623244,14.4079377 L14.1603768,14.4079377 L14.1603768,12.1475436 C14.1603768,10.9229529 13.1564972,9.92665244 11.9227198,9.92665244 L11.9227198,9.92665244 Z" id="Page-1"></path>
        </g>
    </g>
</svg>