<?xml version="1.0" encoding="UTF-8"?>
<svg width="19px" height="21px" viewBox="0 0 19 21" version="1.1" xmlns="http://www.w3.org/2000/svg" xmlns:xlink="http://www.w3.org/1999/xlink">
    <!-- Generator: sketchtool 41 (35326) - http://www.bohemiancoding.com/sketch -->
    <title>1AEBD5CD-EA84-4575-9C6C-2CCDB14A7740</title>
    <desc>Created with sketchtool.</desc>
    <defs></defs>
    <g id="attempt" stroke="none" stroke-width="1" fill="none" fill-rule="evenodd">
        <g id="Dashboard" transform="translate(-23.000000, -297.000000)" fill="#FFFFFF">
            <g id="Group" transform="translate(24.000000, 298.000000)">
                <path d="M12.4444444,8.75483891 C9.47389895,8.75483891 7.05976983,11.168968 7.05976983,14.1395135 C7.05976983,17.110059 9.47389895,19.5241881 12.4444444,19.5241881 C15.4149899,19.5241881 17.8291191,17.110059 17.8291191,14.1395135 C17.8291191,11.168968 15.4149899,8.75483891 12.4444444,8.75483891 Z M12.4444444,18.6267424 C9.97198135,18.6267424 7.9572156,16.6119766 7.9572156,14.1395135 C7.9572156,11.6670504 9.97198135,9.65228468 12.4444444,9.65228468 C14.9169075,9.65228468 16.9316733,11.6670504 16.9316733,14.1395135 C16.9316733,16.6119766 14.9169075,18.6267424 12.4444444,18.6267424 Z" id="Shape"></path>
                <path d="M14.9358417,14.0233126 L12.7588216,14.0233126 L12.7588216,11.8462926 C12.7588216,11.6068204 12.5628898,11.4108886 12.3234176,11.4108886 C12.0839454,11.4108886 11.8880136,11.6068204 11.8880136,11.8462926 L11.8880136,14.4587166 C11.8880136,14.6981888 12.0839454,14.8941206 12.3234176,14.8941206 L14.9358417,14.8941206 C15.1753139,14.8941206 15.3712457,14.6981888 15.3712457,14.4587166 C15.3712457,14.2192444 15.1753139,14.0233126 14.9358417,14.0233126 Z" id="Shape"></path>
                <path d="M2.96296296,0.592592593 L13.037037,0.592592593 L13.037037,8.88888889 L13.6296296,8.88888889 L13.6296296,0 L2.96296296,0 L0,0 L0,17.7777778 L2.96296296,17.7777778 L8.59259259,17.7777778 L8.59259259,17.1851852 L2.96296296,17.1851852 L2.96296296,0.592592593 Z M0.592592593,17.1851852 L0.592592593,0.592592593 L2.37037037,0.592592593 L2.37037037,17.1851852 L0.592592593,17.1851852 Z" id="Shape" stroke="#FFFFFF" stroke-width="0.25"></path>
                <rect id="Rectangle-path" x="5.92592593" y="4.14814815" width="4.14814815" height="0.592592593"></rect>
            </g>
        </g>
    </g>
</svg>