<?xml version="1.0" encoding="UTF-8"?>
<svg width="17px" height="16px" viewBox="0 0 17 16" version="1.1" xmlns="http://www.w3.org/2000/svg" xmlns:xlink="http://www.w3.org/1999/xlink">
    <!-- Generator: sketchtool 41 (35326) - http://www.bohemiancoding.com/sketch -->
    <title>90B7B4DF-B50B-4655-A92D-F51F756FF1AE</title>
    <desc>Created with sketchtool.</desc>
    <defs></defs>
    <g id="attempt" stroke="none" stroke-width="1" fill="none" fill-rule="evenodd">
        <g id="Dashboard" transform="translate(-24.000000, -344.000000)" fill="#FFFFFF">
            <g id="Group-36" transform="translate(0.000000, 121.000000)">
                <g id="Group-29" transform="translate(24.000000, 214.000000)">
                    <path d="M3.98497113,9.6664936 C3.77657421,9.6732171 3.59433208,9.88384048 3.58947139,10.0619933 L3.58947139,13.621491 L1.21647297,13.621491 C1.00252739,13.6264347 0.82583393,13.8388378 0.820973139,14.0169907 L0.820973139,22.520239 C0.820973139,23.4993777 1.62158138,24.2999878 2.60072205,24.2999878 L14.8612139,24.2999878 C15.8403543,24.2999878 16.6409627,23.4993777 16.6409627,22.520239 L16.6409627,10.0619933 C16.6409429,9.85490968 16.4525407,9.66651338 16.2454629,9.6664936 L3.98497113,9.6664936 L3.98497113,9.6664936 Z M4.38047086,10.4574931 L15.8499632,10.4574931 L15.8499632,22.520239 C15.8499632,23.0748483 15.4158212,23.5089883 14.8612139,23.5089883 L4.03440859,23.5089883 C4.2344581,23.2212425 4.38047086,22.8953705 4.38047086,22.520239 L4.38047086,10.4574931 L4.38047086,10.4574931 Z M5.96246981,11.6439923 C5.75310016,11.6439923 5.57183076,11.8613392 5.56697007,12.039492 L5.56697007,14.8079902 C5.56698985,15.0150738 5.75539188,15.2034701 5.96246981,15.2034899 L9.91746717,15.2034899 C10.1245447,15.2034701 10.3129469,15.0150738 10.3129669,14.8079902 L10.3129669,12.039492 C10.3129469,11.8324084 10.1245447,11.6440121 9.91746717,11.6439923 L5.96246981,11.6439923 L5.96246981,11.6439923 Z M11.8949658,12.039492 C11.6765373,12.039492 11.4994661,12.2165573 11.4994661,12.4349918 C11.4994661,12.6534263 11.6765373,12.8304915 11.8949658,12.8304915 L14.2679643,12.8304915 C14.4863926,12.8304915 14.663464,12.6534263 14.663464,12.4349918 C14.663464,12.2165573 14.4863926,12.039492 14.2679643,12.039492 L11.8949658,12.039492 L11.8949658,12.039492 Z M6.35796954,12.4349918 L9.52196743,12.4349918 L9.52196743,14.4124904 L6.35796954,14.4124904 L6.35796954,12.4349918 L6.35796954,12.4349918 Z M11.8949658,14.0169907 C11.6765373,14.0169907 11.4994661,14.1940559 11.4994661,14.4124904 C11.4994661,14.6309249 11.6765373,14.8079902 11.8949658,14.8079902 L14.2679643,14.8079902 C14.4863926,14.8079902 14.663464,14.6309249 14.663464,14.4124904 C14.663464,14.1940559 14.4863926,14.0169907 14.2679643,14.0169907 L11.8949658,14.0169907 L11.8949658,14.0169907 Z M1.61197271,14.4124904 L3.58947139,14.4124904 L3.58947139,22.520239 C3.58947139,23.0748483 3.15532916,23.5089883 2.60072205,23.5089883 C2.04611455,23.5089883 1.61197271,23.0748483 1.61197271,22.520239 L1.61197271,14.4124904 L1.61197271,14.4124904 Z M5.96246981,16.3899891 C5.74404104,16.3899891 5.56697007,16.5670583 5.56697007,16.7854928 C5.56697007,17.0039273 5.74404104,17.1809925 5.96246981,17.1809925 L14.2679643,17.1809925 C14.4863926,17.1809925 14.663464,17.0039273 14.663464,16.7854928 C14.663464,16.5670583 14.4863926,16.3899891 14.2679643,16.3899891 L5.96246981,16.3899891 L5.96246981,16.3899891 Z M5.96246981,18.5652416 C5.74404104,18.5652416 5.56697007,18.7423069 5.56697007,18.9607414 C5.56697007,19.1791759 5.74404104,19.3562411 5.96246981,19.3562411 L14.2679643,19.3562411 C14.4863926,19.3562411 14.663464,19.1791759 14.663464,18.9607414 C14.663464,18.7423069 14.4863926,18.5652416 14.2679643,18.5652416 L5.96246981,18.5652416 L5.96246981,18.5652416 Z M5.96246981,20.7404902 C5.74404104,20.7404902 5.56697007,20.9175554 5.56697007,21.1359899 C5.56697007,21.3544244 5.74404104,21.5314896 5.96246981,21.5314896 L14.2679643,21.5314896 C14.4863926,21.5314896 14.663464,21.3544244 14.663464,21.1359899 C14.663464,20.9175554 14.4863926,20.7404902 14.2679643,20.7404902 L5.96246981,20.7404902 L5.96246981,20.7404902 Z" id="Shape"></path>
                </g>
            </g>
        </g>
    </g>
</svg>