<?xml version="1.0" encoding="UTF-8"?>
<svg width="17px" height="19px" viewBox="0 0 17 19" version="1.1" xmlns="http://www.w3.org/2000/svg" xmlns:xlink="http://www.w3.org/1999/xlink">
    <!-- Generator: sketchtool 41 (35326) - http://www.bohemiancoding.com/sketch -->
    <title>C8285355-4302-47E6-AC91-5C963D0509CA</title>
    <desc>Created with sketchtool.</desc>
    <defs></defs>
    <g id="attempt" stroke="none" stroke-width="1" fill="none" fill-rule="evenodd">
        <g id="Dashboard" transform="translate(-24.000000, -209.000000)" fill="#FFFFFF">
            <g id="Group-36" transform="translate(0.000000, 121.000000)">
                <g id="Group-24" transform="translate(24.000000, 87.000000)">
                    <path d="M16.4771796,1.53623366 C16.3305663,1.45348101 16.1517568,1.45560969 16.0080705,1.54182146 L8.66410549,5.94048397 L1.3198744,1.54182146 C1.17592204,1.45560969 0.996846376,1.45348101 0.851031419,1.53623366 C0.705216461,1.61898631 0.615013413,1.77358209 0.615013413,1.94121608 L0.615013413,14.6947031 C0.615013413,14.8583458 0.70095909,15.0102808 0.841452334,15.0940977 L8.42489446,19.6361804 C8.42995008,19.6391074 8.43580397,19.6401717 8.4408596,19.6430987 C8.46720208,19.6577334 8.49514108,19.6694412 8.5244105,19.6787542 C8.5337235,19.6816811 8.54277042,19.6851402 8.5523495,19.687535 C8.58827107,19.6965819 8.62552306,19.7027019 8.66437158,19.7027019 C8.70322009,19.7027019 8.740206,19.6965819 8.77639365,19.687535 C8.78597273,19.6851402 8.79501965,19.6819472 8.80433265,19.6787542 C8.83360207,19.6694412 8.86127498,19.6577334 8.88788355,19.6430987 C8.89293918,19.6401717 8.89879307,19.6393735 8.90384869,19.6361804 L16.4872908,15.0940977 C16.627518,15.0102808 16.7137297,14.8583458 16.7137297,14.6947031 L16.7137297,1.94121608 C16.7131976,1.77358209 16.6229945,1.61872022 16.4771796,1.53623366 L16.4771796,1.53623366 Z M1.54631332,2.76288868 L8.19845553,6.74725578 L8.19845553,18.4148471 L1.54631332,14.43048 L1.54631332,2.76288868 L1.54631332,2.76288868 Z M15.7818977,14.4307461 L9.12975544,18.4151132 L9.12975544,6.74725578 L15.7818977,2.76288868 L15.7818977,14.4307461 L15.7818977,14.4307461 Z M10.4314466,8.99381725 C10.299202,8.77296613 10.3707791,8.4871901 10.5916302,8.35494551 L13.8418669,6.40826261 C14.0629841,6.27601803 14.3487601,6.34786116 14.4804726,6.5684462 C14.6127171,6.78929732 14.5411401,7.07507335 14.320289,7.20731794 L11.0700523,9.15400083 C10.9950161,9.19870323 10.9125296,9.22025617 10.8313734,9.22025617 C10.6727864,9.22025617 10.5184567,9.13936612 10.4314466,8.99381725 L10.4314466,8.99381725 Z M10.4314466,11.9138416 C10.299202,11.6932566 10.3707791,11.4072144 10.5916302,11.2752359 L13.8418669,9.32855305 C14.0629841,9.19604237 14.3487601,9.26815159 14.4804726,9.48900272 C14.6127171,9.70958775 14.5411401,9.99562987 14.320289,10.1276084 L11.0700523,12.0737591 C10.9950161,12.1187276 10.9125296,12.1400144 10.8313734,12.1400144 C10.6727864,12.1400144 10.5184567,12.0591244 10.4314466,11.9138416 L10.4314466,11.9138416 Z M14.4802065,12.4084949 C14.6124511,12.6290799 14.540874,12.915122 14.3200229,13.0471005 L11.0697862,14.9935174 C10.99475,15.0384858 10.9122635,15.0597727 10.8311073,15.0597727 C10.6725203,15.0597727 10.5181906,14.9788826 10.4311805,14.8333338 C10.298936,14.6127487 10.370513,14.3267066 10.5913641,14.1947281 L13.8416008,12.2483113 C14.062718,12.1158006 14.3484941,12.1881759 14.4802065,12.4084949 L14.4802065,12.4084949 Z M2.84800451,6.5684462 C2.98051518,6.34786116 3.2665573,6.2765502 3.48687625,6.40826261 L6.73684685,8.35494551 C6.95743188,8.4871901 7.02927502,8.77323221 6.89703043,8.99381725 C6.80975433,9.13936612 6.65542463,9.22025617 6.49710364,9.22025617 C6.41568142,9.22025617 6.33319486,9.19870323 6.25815869,9.15400083 L3.0081881,7.20731794 C2.78760306,7.07507335 2.71575992,6.78903123 2.84800451,6.5684462 L2.84800451,6.5684462 Z M6.89676435,11.9138416 C6.80948824,12.0593905 6.65515854,12.1402805 6.49683756,12.1402805 C6.41541534,12.1402805 6.33292877,12.1189937 6.25789261,12.0740252 L3.00792201,10.1276084 C2.78733697,9.99536378 2.71549384,9.70958775 2.84773842,9.48873663 C2.9802491,9.26815159 3.26629121,9.19710672 3.48661016,9.32855305 L6.73658076,11.2752359 C6.9571658,11.4069484 7.02900893,11.6929905 6.89676435,11.9138416 L6.89676435,11.9138416 Z M6.89676435,14.8335999 C6.80948824,14.9791487 6.65515854,15.0600388 6.49683756,15.0600388 C6.41541534,15.0600388 6.33292877,15.0387519 6.25789261,14.9937834 L3.00792201,13.0473666 C2.78733697,12.9153881 2.71549384,12.629346 2.84773842,12.408761 C2.9802491,12.1887081 3.26629121,12.1163328 3.48661016,12.2485774 L6.73658076,14.1949942 C6.9571658,14.3269727 7.02900893,14.6130148 6.89676435,14.8335999 L6.89676435,14.8335999 Z" id="Shape"></path>
                </g>
            </g>
        </g>
    </g>
</svg>