<?xml version="1.0" encoding="UTF-8"?>
<svg width="16px" height="16px" viewBox="0 0 16 16" version="1.1" xmlns="http://www.w3.org/2000/svg" xmlns:xlink="http://www.w3.org/1999/xlink">
    <!-- Generator: sketchtool 41 (35326) - http://www.bohemiancoding.com/sketch -->
    <title>03527596-EF77-44F9-A510-C5F4AF18F60D</title>
    <desc>Created with sketchtool.</desc>
    <defs></defs>
    <g id="attempt" stroke="none" stroke-width="1" fill="none" fill-rule="evenodd">
        <g id="Dashboard" transform="translate(-24.000000, -163.000000)" stroke="#FFFFFF" stroke-width="0.5" fill="#FFFFFF">
            <g id="Group-36" transform="translate(0.000000, 121.000000)">
                <g id="Group-4" transform="translate(24.000000, 43.000000)">
                    <path d="M7.81586929,0.127111434 L0.320718807,5.67052372 L1.4808702,7.25292621 L2.06529375,6.82043561 L2.06529375,14.5979884 L6.22147634,14.5979884 L6.22147634,9.44157971 C6.22147634,8.55840371 6.93651656,7.84025462 7.81586929,7.84025462 C8.69504086,7.84025462 9.41026224,8.55840371 9.41026224,9.44157971 L9.41026224,14.5979884 L13.5659013,14.5979884 L13.5659013,6.82061756 L14.1505061,7.25310816 L15.3106574,5.67070567 L7.81586929,0.127111434 L7.81586929,0.127111434 Z M14.0428968,6.54041751 L13.0586521,5.81262517 L13.0586521,14.0887157 L9.91733028,14.0887157 L9.91733028,9.44176166 C9.91733028,8.27802171 8.97475256,7.33079999 7.81568813,7.33079999 C6.65680486,7.33079999 5.71386482,8.27783977 5.71386482,9.44176166 L5.71386482,14.0888977 L2.57290528,14.0888977 L2.57290528,5.81262517 L1.58884182,6.54041751 L1.03014305,5.77841893 L7.81605045,0.759744923 L14.6014144,5.77860088 L14.0428968,6.54041751 L14.0428968,6.54041751 Z" id="Shape"></path>
                </g>
            </g>
        </g>
    </g>
</svg>