<?xml version="1.0" encoding="UTF-8"?>
<svg width="16px" height="16px" viewBox="0 0 16 16" version="1.1" xmlns="http://www.w3.org/2000/svg" xmlns:xlink="http://www.w3.org/1999/xlink">
    <!-- Generator: sketchtool 41 (35326) - http://www.bohemiancoding.com/sketch -->
    <title>830B7F1B-D08E-4A6D-A1BF-D2B176BE9AA8</title>
    <desc>Created with sketchtool.</desc>
    <defs></defs>
    <g id="attempt" stroke="none" stroke-width="1" fill="none" fill-rule="evenodd">
        <g id="Dashboard" transform="translate(-24.000000, -389.000000)" fill="#FFFFFF">
            <g id="Group-36" transform="translate(0.000000, 121.000000)">
                <g id="Group-30" transform="translate(24.000000, 259.000000)">
                    <g id="Group-25" transform="translate(0.000000, 8.700012)">
                        <path d="M15.4662933,6.82707654 L15.1276421,6.79321142 C14.8059235,6.7593463 14.4334071,6.72548118 14.0270257,6.70854862 C13.8915652,6.25136949 13.705307,5.81112292 13.4851837,5.38780891 C13.7561047,5.08302282 13.9931606,4.79516929 14.1963513,4.54118088 L14.399542,4.28719248 L14.2132838,4.01627151 C13.6883745,3.27123885 13.0449372,2.62780156 12.3168371,2.11982475 L12.0459161,1.93356658 L11.7919277,2.13675731 C11.5379393,2.33994803 11.2500858,2.59393644 10.9452997,2.84792484 C10.5219857,2.610869 10.0817391,2.44154339 9.62455998,2.30608291 C9.62455998,1.91663402 9.59069486,1.54411769 9.55682973,1.22239905 L9.52296461,0.900680398 L9.20124597,0.849882716 C8.30382026,0.697489673 7.40639456,0.697489673 6.50896886,0.849882716 L6.18725021,0.900680398 L6.17031765,1.22239905 C6.13645253,1.54411769 6.10258741,1.91663402 6.08565485,2.32301547 C5.62847572,2.45847595 5.18822915,2.64473412 4.76491514,2.8648574 C4.46012905,2.59393644 4.17227553,2.35688059 3.91828712,2.15368987 L3.66429871,1.95049914 L3.39337775,2.13675731 C2.64834509,2.66166668 2.00490779,3.30510398 1.49693098,4.03320407 L1.31067282,4.30412504 L1.51386354,4.55811345 C1.71705427,4.81210185 1.97104267,5.09995538 2.22503108,5.40474147 C1.98797523,5.82805548 1.81864963,6.26830205 1.68318915,6.72548118 C1.29374026,6.72548118 0.921223927,6.7593463 0.599505279,6.79321142 L0.277786631,6.82707654 L0.22698895,7.14879519 C0.142326148,7.60597432 0.108461027,8.04622089 0.108461027,8.48646746 C0.108461027,8.92671403 0.142326148,9.38389316 0.22698895,9.82413973 L0.277786631,10.1458584 L0.599505279,10.1797235 C0.921223927,10.2135886 1.29374026,10.2474537 1.70012171,10.2643863 C1.83558219,10.7215654 2.02184035,11.161812 2.24196364,11.585126 C1.97104267,11.8899121 1.73398683,12.1777656 1.5307961,12.431754 L1.32760538,12.6857424 L1.51386354,12.9566634 C2.03877291,13.7016961 2.68221021,14.3451334 3.41031031,14.8531102 L3.68123127,15.0393683 L3.93521968,14.8361776 C4.18920809,14.6329869 4.47706161,14.3789985 4.7818477,14.1250101 C5.20516171,14.3620659 5.64540828,14.5313915 6.10258741,14.666852 C6.13645253,15.0732335 6.15338509,15.4457498 6.18725021,15.7674684 L6.22111533,16.0891871 L6.54283398,16.1399848 C7.00001311,16.2246476 7.44025968,16.2585127 7.88050625,16.2585127 C8.32075282,16.2585127 8.77793196,16.2246476 9.21817853,16.1399848 L9.53989717,16.0891871 L9.57376229,15.7674684 C9.60762742,15.4457498 9.64149254,15.0732335 9.6584251,14.666852 C10.1156042,14.5313915 10.5558508,14.3451334 10.9791648,14.1250101 C11.2839509,14.395931 11.5718044,14.6329869 11.8257928,14.8361776 L12.0797812,15.0393683 L12.3507022,14.8531102 C13.0957349,14.3282008 13.7391722,13.6847635 14.247149,12.9566634 L14.4334071,12.6857424 L14.2302164,12.431754 C14.0270257,12.1777656 13.7730373,11.8899121 13.5190489,11.585126 C13.7561047,11.161812 13.9254303,10.7215654 14.0608908,10.2643863 C14.4672723,10.2305212 14.8397886,10.2135886 15.1615072,10.1797235 L15.4832259,10.1458584 L15.5340236,9.82413973 C15.6186864,9.3669606 15.6525515,8.92671403 15.6525515,8.48646746 C15.6525515,8.04622089 15.6186864,7.58904176 15.5340236,7.14879519 L15.4662933,6.82707654 L15.4662933,6.82707654 Z M14.7212607,9.3669606 C14.399542,9.40082572 14.0439582,9.41775828 13.6714419,9.43469084 L13.3497233,9.4516234 L13.281993,9.77334205 C13.1465325,10.3490491 12.9094767,10.9078236 12.6046906,11.4158004 L12.435365,11.6867214 L12.6385557,11.9237772 C12.8925441,12.2116307 13.1296,12.4825517 13.3327907,12.7196076 C12.9772069,13.1767867 12.5538929,13.6001007 12.0967138,13.9556845 C11.8596579,13.7524937 11.588737,13.5154379 11.3008835,13.2614495 L11.0638276,13.0582588 L10.7929066,13.2275844 C10.2849298,13.549303 9.72615534,13.7694263 9.15044828,13.9048868 L8.8456622,13.972617 L8.82872964,14.2943357 C8.81179708,14.666852 8.77793196,15.0224358 8.7609994,15.3441544 C8.16835978,15.4118847 7.59265273,15.4118847 7.00001311,15.3441544 C6.96614799,15.0224358 6.94921543,14.666852 6.93228287,14.2943357 L6.91535031,13.972617 L6.5766991,13.9048868 C6.00099205,13.7694263 5.44221756,13.5323705 4.93424074,13.2275844 L4.66331978,13.0582588 L4.42626393,13.2614495 C4.1384104,13.5154379 3.86748944,13.7524937 3.63043359,13.9556845 C3.17325446,13.6001007 2.74994045,13.1767867 2.39435668,12.7196076 C2.59754741,12.4825517 2.83460325,12.2116307 3.08859166,11.9237772 L3.29178238,11.6867214 L3.12245678,11.4158004 C2.80073813,10.9078236 2.58061485,10.3490491 2.44515436,9.77334205 L2.37742412,9.46855596 L2.05570547,9.4516234 C1.68318915,9.43469084 1.32760538,9.40082572 1.00588673,9.38389316 C0.972021608,9.09603963 0.955089048,8.79125355 0.955089048,8.50340002 C0.955089048,8.21554649 0.972021608,7.92769297 1.00588673,7.62290688 C1.32760538,7.58904176 1.68318915,7.5721092 2.05570547,7.55517664 L2.37742412,7.53824408 L2.44515436,7.23345799 C2.58061485,6.65775094 2.81767069,6.09897644 3.12245678,5.59099963 L3.29178238,5.32007866 L3.08859166,5.08302282 C2.83460325,4.79516929 2.59754741,4.52424832 2.39435668,4.28719248 C2.74994045,3.83001335 3.17325446,3.40669934 3.63043359,3.05111557 C3.86748944,3.25430629 4.1384104,3.49136214 4.42626393,3.74535055 L4.66331978,3.94854127 L4.93424074,3.77921567 C5.44221756,3.45749702 6.00099205,3.23737373 6.5766991,3.10191325 L6.88148519,3.03418301 L6.89841775,2.71246436 C6.91535031,2.33994803 6.94921543,1.98436426 6.96614799,1.66264562 C7.55878761,1.59491537 8.13449466,1.59491537 8.72713427,1.66264562 C8.7609994,1.98436426 8.77793196,2.33994803 8.79486452,2.71246436 L8.81179708,3.03418301 L9.11658316,3.10191325 C9.69229022,3.23737373 10.2510647,3.47442958 10.7590415,3.77921567 L11.0299625,3.94854127 L11.2670183,3.74535055 C11.5548719,3.49136214 11.8257928,3.25430629 12.0628487,3.05111557 C12.5200278,3.40669934 12.9433418,3.83001335 13.2989256,4.28719248 C13.0957349,4.52424832 12.858679,4.79516929 12.6046906,5.08302282 L12.435365,5.28621354 L12.6046906,5.55713451 C12.9264093,6.06511132 13.1465325,6.62388582 13.281993,7.19959287 L13.3497233,7.50437896 L13.6714419,7.52131152 C14.0439582,7.53824408 14.399542,7.5721092 14.7212607,7.58904176 C14.7551258,7.87689529 14.7720583,8.18168137 14.7720583,8.4695349 C14.7720583,8.77432099 14.7551258,9.06217451 14.7212607,9.3669606 L14.7212607,9.3669606 Z" id="Shape"></path>
                        <path d="M7.88050625,5.97409881 C6.4920363,5.97409881 5.35755475,7.10858036 5.35755475,8.49705031 C5.35755475,9.88552026 6.4920363,11.0200018 7.88050625,11.0200018 C9.26897621,11.0200018 10.4034578,9.88552026 10.4034578,8.49705031 C10.4034578,7.10858036 9.26897621,5.97409881 7.88050625,5.97409881 L7.88050625,5.97409881 Z M7.88050625,10.1733738 C6.96614799,10.1733738 6.20418277,9.42834113 6.20418277,8.49705031 C6.20418277,7.56575949 6.94921543,6.82072683 7.88050625,6.82072683 C8.81179708,6.82072683 9.55682973,7.56575949 9.55682973,8.49705031 C9.55682973,9.42834113 8.79486452,10.1733738 7.88050625,10.1733738 L7.88050625,10.1733738 Z" id="Shape"></path>
                    </g>
                </g>
            </g>
        </g>
    </g>
</svg>