<?xml version="1.0" encoding="UTF-8"?>
<svg width="14px" height="15px" viewBox="0 0 14 15" version="1.1" xmlns="http://www.w3.org/2000/svg" xmlns:xlink="http://www.w3.org/1999/xlink">
    <!-- Generator: sketchtool 41 (35326) - http://www.bohemiancoding.com/sketch -->
    <title>2B4E259B-897B-4C75-8168-C409B5F2C299</title>
    <desc>Created with sketchtool.</desc>
    <defs></defs>
    <g id="attempt" stroke="none" stroke-width="1" fill="none" fill-rule="evenodd">
        <g id="Dashboard" transform="translate(-24.000000, -435.000000)" fill="#FFFFFF">
            <g id="Group-36" transform="translate(0.000000, 121.000000)">
                <g id="Group-30-Copy" transform="translate(24.000000, 311.000000)">
                    <path d="M12.7859031,16.4781063 L1.30249487,16.4781063 L1.30249487,15.1756581 C1.30249487,14.4611605 1.95704913,13.8341664 2.703241,13.8341664 L4.90736637,13.8341664 L5.81616329,11.9786773 C6.20958486,12.1137222 6.62872926,12.189972 7.06440977,12.189972 C7.43807987,12.189972 7.8000369,12.1348517 8.14385014,12.0344867 L9.02577589,13.8341664 L11.4669188,13.8341664 C12.1942779,13.8341664 12.7859031,14.4184422 12.7859031,15.1363849 L12.7859031,16.4781063 Z M4.10697282,8.52837248 L4.07964231,8.15585071 L3.70941723,8.10670173 C3.42692538,8.06903615 3.13984018,7.82880325 3.13984018,7.71603618 L3.13984018,7.47741096 C3.13984018,7.36625157 3.42439903,7.12693734 3.70436453,7.08720475 L4.0991641,7.03093605 L4.0991641,5.72182751 C4.0991641,4.72943137 4.90552902,3.92191811 5.89677682,3.92191811 L10.0298851,3.92191811 L10.0298851,7.01807463 L10.4014882,7.09019043 C10.672956,7.14301411 10.9485578,7.37658663 10.9485578,7.47741096 L10.9485578,7.71603618 C10.9485578,7.8219132 10.6768603,8.05341871 10.3987322,8.10371604 L10.0477992,8.16687479 L10.0223061,8.52286044 C9.91206533,10.0639338 8.61283253,11.2712994 7.06440977,11.2712994 C5.51943203,11.2712994 4.22042889,10.0664602 4.10697282,8.52837248 L4.10697282,8.52837248 Z M11.4669188,12.9154937 L9.59856829,12.9154937 L8.98994765,11.6732186 C9.98992284,11.0983592 10.7184303,10.0931017 10.9028538,8.9047986 C11.3709175,8.710729 11.8672304,8.29135493 11.8672304,7.71603618 L11.8672304,7.47741096 C11.8672304,6.92597769 11.4007744,6.513264 10.9485578,6.31000768 L10.9485578,3.00324545 L5.89677682,3.00324545 C4.39888105,3.00324545 3.18049144,4.2227834 3.18049144,5.72182751 L3.18049144,6.28887821 C2.70025531,6.48708183 2.22116752,6.91334595 2.22116752,7.47741096 L2.22116752,7.71603618 C2.22116752,8.30146033 2.73149018,8.73553316 3.22941076,8.92386105 C3.40901127,10.0425747 4.07275226,10.9966162 4.9886689,11.580203 L4.33457397,12.9154937 L2.703241,12.9154937 C1.44603747,12.9154937 0.383822211,13.9506082 0.383822211,15.1756581 L0.383822211,17.396779 L13.7045757,17.396779 L13.7045757,15.1363849 C13.7045757,13.9117942 12.7006962,12.9154937 11.4669188,12.9154937 L11.4669188,12.9154937 Z" id="Page-1"></path>
                </g>
            </g>
        </g>
    </g>
</svg>