<?xml version="1.0" encoding="UTF-8"?>
<svg width="16px" height="21px" viewBox="0 0 16 21" version="1.1" xmlns="http://www.w3.org/2000/svg" xmlns:xlink="http://www.w3.org/1999/xlink">
    <!-- Generator: sketchtool 41 (35326) - http://www.bohemiancoding.com/sketch -->
    <title>3176FEDE-5CFF-4C75-AC55-4CEF120E8401</title>
    <desc>Created with sketchtool.</desc>
    <defs></defs>
    <g id="attempt" stroke="none" stroke-width="1" fill="none" fill-rule="evenodd">
        <g id="Dashboard" transform="translate(-24.000000, -251.000000)" fill="#FFFFFF">
            <g id="Group-36" transform="translate(0.000000, 121.000000)">
                <g id="Group-26" transform="translate(24.000000, 130.000000)">
                    <path d="M15.464737,4.54052359 L12.3961342,0.843982745 C12.3234871,0.755667087 12.2152743,0.703068834 12.099937,0.700012207 L3.31275391,0.700012207 C3.09464033,0.700012207 2.91782434,0.874222492 2.91782434,1.08912177 L2.91782434,3.81288871 L0.548246871,3.81288871 C0.330133288,3.81288871 0.153317294,3.98709899 0.153317294,4.20199827 L0.153317294,19.7663808 C0.153317294,19.9812801 0.330133288,20.1554903 0.548246871,20.1554903 L12.3961342,20.1554903 C12.6142478,20.1554903 12.7910638,19.9812801 12.7910638,19.7663808 L12.7910638,17.0426138 L15.1606412,17.0426138 C15.3787548,17.0426138 15.5555708,16.8684036 15.5555708,16.6535043 L15.5555708,4.78566262 C15.5548359,4.69608389 15.5227525,4.60949854 15.464737,4.54052359 L15.464737,4.54052359 Z M14.489261,4.59110783 L12.3961342,4.59110783 L12.3961342,2.06189568 L14.489261,4.59110783 Z M12.0012046,19.3772712 L0.943176449,19.3772712 L0.943176449,4.59110783 L8.44683842,4.59110783 L8.44683842,8.0930939 C8.44683842,8.30799318 8.62365442,8.48220346 8.841768,8.48220346 L12.0012046,8.48220346 L12.0012046,19.3772712 L12.0012046,19.3772712 Z M9.23669758,4.90628658 L11.7010581,7.70398434 L9.23669758,7.70398434 L9.23669758,4.90628658 L9.23669758,4.90628658 Z M12.7910638,16.2643947 L12.7910638,7.89853912 C12.7909256,7.80395732 12.7558273,7.71266313 12.6923314,7.64172681 L9.43416237,3.94518596 C9.35929563,3.86122224 9.25139968,3.81303023 9.13796518,3.81288871 L3.70768349,3.81288871 L3.70768349,1.47823133 L11.606275,1.47823133 L11.606275,4.9802174 C11.606275,5.19511667 11.783091,5.36932696 12.0012046,5.36932696 L14.7657117,5.36932696 L14.7657117,16.2643947 L12.7910638,16.2643947 L12.7910638,16.2643947 Z M10.4214863,10.8168608 C10.4214863,11.0317601 10.2446703,11.2059704 10.0265567,11.2059704 L2.91782434,11.2059704 C2.69971075,11.2059704 2.52289476,11.0317601 2.52289476,10.8168608 C2.52289476,10.6019616 2.69971075,10.4277513 2.91782434,10.4277513 L10.0265567,10.4277513 C10.2446703,10.4277513 10.4214863,10.6019616 10.4214863,10.8168608 L10.4214863,10.8168608 Z M10.4214863,12.7624087 C10.4214863,12.9773079 10.2446703,13.1515182 10.0265567,13.1515182 L2.91782434,13.1515182 C2.69971075,13.1515182 2.52289476,12.9773079 2.52289476,12.7624087 C2.52289476,12.5475094 2.69971075,12.3732991 2.91782434,12.3732991 L10.0265567,12.3732991 C10.2446703,12.3732991 10.4214863,12.5475094 10.4214863,12.7624087 L10.4214863,12.7624087 Z M10.4214863,15.097066 C10.4214863,15.3119653 10.2446703,15.4861756 10.0265567,15.4861756 L2.91782434,15.4861756 C2.69971075,15.4861756 2.52289476,15.3119653 2.52289476,15.097066 C2.52289476,14.8821668 2.69971075,14.7079565 2.91782434,14.7079565 L10.0265567,14.7079565 C10.2446703,14.7079565 10.4214863,14.8821668 10.4214863,15.097066 L10.4214863,15.097066 Z" id="Shape"></path>
                </g>
            </g>
        </g>
    </g>
</svg>