<?xml version="1.0" standalone="no"?>
<!DOCTYPE svg PUBLIC "-//W3C//DTD SVG 20010904//EN"
 "http://www.w3.org/TR/2001/REC-SVG-20010904/DTD/svg10.dtd">
<svg version="1.0" xmlns="http://www.w3.org/2000/svg"
 width="185.000000pt" height="185.000000pt" viewBox="0 0 185.000000 185.000000"
 preserveAspectRatio="xMidYMid meet">
<metadata>
Created by potrace 1.11, written by Peter Selinger 2001-2013
</metadata>
<g transform="translate(0.000000,185.000000) scale(0.100000,-0.100000)"
fill="#000000" stroke="none">
<path d="M772 1839 c-337 -60 -616 -297 -720 -612 -42 -127 -56 -221 -49 -347
12 -227 105 -435 264 -595 329 -329 840 -365 1211 -85 158 119 268 278 329
477 25 81 27 102 27 253 0 151 -2 172 -27 253 -98 319 -337 552 -652 637 -92
25 -296 35 -383 19z m212 -596 c-19 -32 -40 -76 -45 -98 -21 -74 -18 -72 -45
-42 -31 37 -30 68 3 108 22 25 107 89 119 89 2 0 -13 -26 -32 -57z m-624 -89
c33 -108 24 -174 -25 -174 -15 0 -31 10 -41 25 -14 22 -15 33 -4 88 12 62 35
127 44 127 3 0 14 -30 26 -66z m880 -144 c-10 -19 -21 -20 -310 -20 -165 0
-300 2 -300 4 0 2 -3 11 -6 20 -6 14 26 16 310 16 314 0 317 0 306 -20z m-30
-70 c-10 -19 -21 -20 -280 -20 -149 0 -270 2 -270 4 0 2 -3 11 -6 20 -6 14 23
16 280 16 284 0 287 0 276 -20z m410 -6 c0 -37 -62 -143 -109 -187 -48 -45
-122 -77 -179 -77 -13 0 -40 -13 -58 -30 -71 -62 -191 -108 -305 -117 -93 -7
-201 15 -289 59 -73 36 -167 121 -212 189 l-31 49 -84 0 -83 0 -15 36 c-18 45
-18 44 0 44 8 0 15 5 15 10 0 6 28 10 65 10 37 0 65 -4 65 -10 0 -7 179 -10
518 -10 514 1 517 1 597 24 98 29 105 30 105 10z"/>
<path d="M1492 877 c-35 -10 -47 -20 -67 -55 -14 -24 -34 -56 -45 -72 -26 -37
-25 -40 10 -30 54 15 100 51 135 103 49 73 48 75 -33 54z"/>
</g>
</svg>
